<svg viewBox="0 0 341 387" width="341" height="387" xmlns="http://www.w3.org/2000/svg" fill="none">
  <g transform="translate(-1370 -960)">
    <g>
      <path d="M1529.62 1038.92C1536.59 1036.04 1544.41 1036.04 1551.37 1038.92L1630.09 1071.53C1637.06 1074.41 1642.59 1079.94 1645.47 1086.91L1678.08 1165.63C1680.96 1172.59 1680.96 1180.41 1678.08 1187.38L1645.47 1266.09C1642.59 1273.06 1637.06 1278.59 1630.09 1281.47L1551.37 1314.08C1544.41 1316.96 1536.59 1316.96 1529.62 1314.08L1450.91 1281.47C1443.94 1278.59 1438.41 1273.06 1435.53 1266.09L1402.92 1187.38C1400.04 1180.41 1400.04 1172.59 1402.92 1165.63L1435.53 1086.91C1438.41 1079.94 1443.94 1074.41 1450.91 1071.53L1529.62 1038.92Z" stroke="#FF5200" stroke-width="27.5556"/>
    </g>
    <path d="M1450 1009 1529.08 976.177C1536.07 973.274 1543.93 973.274 1550.92 976.177L1630 1009" stroke="#FF5200" stroke-width="27.5" stroke-miterlimit="8" fill-rule="evenodd"/>
  </g>
</svg>
